<svg width="1200" height="630" viewBox="0 0 1200 630" xmlns="http://www.w3.org/2000/svg">
  <defs>
    <pattern id="dots" width="28" height="28" patternUnits="userSpaceOnUse">
      <circle cx="1" cy="1" r="1" fill="#fafafa" fill-opacity="0.06"/>
    </pattern>
  </defs>
  <rect width="1200" height="630" fill="#0b0b0c"/>
  <rect width="1200" height="630" fill="url(#dots)"/>
  <rect x="0.5" y="0.5" width="1199" height="629" fill="none" stroke="#26262b" stroke-width="1"/>

  <!-- layered-cube mark -->
  <g transform="translate(80,76) scale(2.1)" fill="none" stroke="#fafafa" stroke-width="1.75" stroke-linecap="round" stroke-linejoin="round">
    <path d="M21 16V8a2 2 0 0 0-1-1.73l-7-4a2 2 0 0 0-2 0l-7 4A2 2 0 0 0 3 8v8a2 2 0 0 0 1 1.73l7 4a2 2 0 0 0 2 0l7-4A2 2 0 0 0 21 16Z"/>
    <path d="m3.3 7 8.7 5 8.7-5M12 22V12"/>
  </g>
  <text x="138" y="108" font-family="'JetBrains Mono', monospace" font-size="26" font-weight="600" letter-spacing="6" fill="#fafafa">QUENCHWORKS</text>

  <text x="80" y="290" font-family="Inter, 'Helvetica Neue', Arial, sans-serif" font-size="74" font-weight="700" fill="#fafafa">The hardened catalog</text>
  <text x="80" y="378" font-family="Inter, 'Helvetica Neue', Arial, sans-serif" font-size="74" font-weight="700" fill="#fafafa">Bitnami left behind.</text>

  <text x="82" y="446" font-family="Inter, 'Helvetica Neue', Arial, sans-serif" font-size="30" font-weight="400" fill="#9a9aa4">0-CVE container images and signed Helm charts. Built from</text>
  <text x="82" y="486" font-family="Inter, 'Helvetica Neue', Arial, sans-serif" font-size="30" font-weight="400" fill="#9a9aa4">source, cosign-signed, pinned by digest. Free and independent.</text>

  <text x="80" y="566" font-family="'JetBrains Mono', monospace" font-size="24" font-weight="500" letter-spacing="1" fill="#fafafa">62 hardened images  ·  52 signed charts  ·  0 fixable CVEs</text>
</svg>
